<?xml version="1.0" encoding="UTF-8" standalone="no"?>
<svg
   version="1.1"
   width="1000"
   height="1000"
   id="svg9"
   sodipodi:docname="Logo.svg"
   xml:space="preserve"
   inkscape:export-filename="favicon.svg"
   inkscape:export-xdpi="96"
   inkscape:export-ydpi="96"
   inkscape:version="1.4.3 (0d15f75042, 2025-12-25)"
   xmlns:inkscape="http://www.inkscape.org/namespaces/inkscape"
   xmlns:sodipodi="http://sodipodi.sourceforge.net/DTD/sodipodi-0.dtd"
   xmlns="http://www.w3.org/2000/svg"
   xmlns:svg="http://www.w3.org/2000/svg"><defs
     id="defs9" /><sodipodi:namedview
     id="namedview9"
     pagecolor="#ffffff"
     bordercolor="#000000"
     borderopacity="0.25"
     inkscape:showpageshadow="2"
     inkscape:pageopacity="0.0"
     inkscape:pagecheckerboard="0"
     inkscape:deskcolor="#d1d1d1"
     inkscape:zoom="0.25201125"
     inkscape:cx="-99.201921"
     inkscape:cy="648.78056"
     inkscape:window-width="1920"
     inkscape:window-height="1029"
     inkscape:window-x="0"
     inkscape:window-y="0"
     inkscape:window-maximized="1"
     inkscape:current-layer="light-icon" /><style
     id="style1">
    #light-icon {
      display: inline;
    }
    #dark-icon {
      display: none;
    }

    @media (prefers-color-scheme: dark) {
      #light-icon {
        display: none;
      }
      #dark-icon {
        display: inline;
      }
    }
  </style><g
     id="light-icon"><svg
       version="1.1"
       width="1000"
       height="1000"
       id="svg4"
       style="display:none"><g
         clip-path="url(#SvgjsClipPath1059)"
         id="g4"><rect
           width="1000"
           height="1000"
           fill="#000000"
           id="rect1"
           style="opacity:0;fill:#1f1f1f;fill-opacity:1"
           x="0"
           y="0" /></g><defs
         id="defs4"><clipPath
           id="SvgjsClipPath1059"><rect
             width="1000"
             height="1000"
             x="0"
             y="0"
             rx="350"
             ry="350"
             id="rect4" /></clipPath></defs></svg><g
       transform="matrix(5,0,0,5,192.5,150)"
       id="g3"
       style="display:inline"><svg
         version="1.1"
         width="123"
         height="140"
         id="svg3"><svg
           width="123"
           height="140"
           viewBox="0 0 123 140"
           fill="none"
           version="1.1"
           id="svg2"><path
             d="m -8.26162,0.099997 -0.13836,3.517724 c 0,0 6.22258,-0.23428 10.37103,0.23428 4.14824,0.46856 10.9232,1.407441 11.75418,9.145728 0.8289,7.738287 1.52069,37.636295 1.52069,37.636295 0,0 8.849915,4.690357 22.953689,4.924813 0,0 -0.552601,-30.64101 -0.737493,-38.458565 C 37.279301,9.284479 44.099553,4.516088 50.921882,4.281808 57.744211,4.047528 64.749356,4.047528 64.749356,4.047528 L 64.564463,0.37303 -8.26162,0.099997 m 0,136.204773 0.0922,3.59523 124.91303,-0.15678 14.65637,-37.51827 -4.70125,-0.7046 c 0,0 -3.87236,11.95885 -9.12622,17.1183 -5.25386,5.15944 -10.78609,11.02173 -26.82605,12.42917 -16.03995,1.40744 -43.144375,0 -46.185755,0 -3.041379,0 -8.018937,-2.40446 -7.190037,-10.20087 0.828901,-7.79818 0,-49.479418 0,-49.479418 L 14.41698,66.697355 c 0,0 0.73749,51.081675 0.92031,58.117125 0.18489,7.03545 -10.50855,13.60057 -23.59895,11.49029"
             style="fill:#000000;fill-opacity:1;fill-rule:nonzero;stroke:none;stroke-width:0.0191296"
             id="path1-6-5" /><path
             d="m 47.67163,119.0173 v 3.98628 c 0,0 14.932675,1.09566 25.99507,-0.0775 11.062394,-1.17316 42.40689,-5.70551 42.0371,-29.468201 -0.36771,-23.76322 -34.292385,-29.391225 -34.292385,-29.391225 0,0 27.102355,-7.034919 22.953695,-28.608058 C 100.21645,13.883695 54.585367,16.580557 45.459151,16.698578 l 0.137112,3.165423 c 0,0 9.265405,-0.664087 16.640334,-0.03875 7.37493,0.625334 21.570112,3.907015 22.307605,19.071803 0.737493,15.164436 -10.507717,22.043109 -19.542525,22.199355 l -3.14733,0.05443 a 60.351647,51.173277 0 0 1 -7.81327,-0.2947 c -2.18755,-0.203629 -4.35017,-0.563505 -6.494093,-0.988027 L 10.335167,52.497627 7.2929568,61.25283 c 0,0 42.7739682,9.067166 57.8936122,13.131838 15.117567,4.06467 29.867428,9.69267 26.917455,23.450551 -2.949972,13.757341 -11.062395,19.071801 -18.805032,20.165691 -7.744715,1.09566 -25.627362,1.01639 -25.627362,1.01639"
             style="fill:#000000;fill-opacity:1;fill-rule:nonzero;stroke:none;stroke-width:0.0191296"
             id="path2-7-3" /></svg></svg></g></g><g
     id="dark-icon"><svg
       version="1.1"
       width="1000"
       height="1000"
       id="svg8"><g
         clip-path="url(#SvgjsClipPath1060)"
         id="g8"><rect
           width="1000"
           height="1000"
           fill="#000000"
           id="rect5"
           style="opacity:0;fill:#1f1f1f;fill-opacity:1"
           x="0"
           y="0" /></g><defs
         id="defs8"><clipPath
           id="SvgjsClipPath1060"><rect
             width="1000"
             height="1000"
             x="0"
             y="0"
             rx="350"
             ry="350"
             id="rect8" /></clipPath></defs></svg><g
       transform="matrix(5,0,0,5,192.5,150)"
       id="g7"><svg
         version="1.1"
         width="123"
         height="140"
         id="svg7"><svg
           width="123"
           height="140"
           viewBox="0 0 123 140"
           fill="none"
           version="1.1"
           id="svg6"><path
             d="m -8.261622,0.09999827 -0.13836,3.51772353 c 0,0 6.22258,-0.2342801 10.37103,0.23428 4.14824,0.4685601 10.9232,1.4074417 11.75418,9.1457292 0.8289,7.738287 1.52069,37.636294 1.52069,37.636294 0,0 8.84991,4.690357 22.95369,4.924813 0,0 -0.5526,-30.64101 -0.73749,-38.458565 -0.18282,-7.8157929 6.63743,-12.5841842 13.45976,-12.8184642 6.82233,-0.2342801 13.82748,-0.2342801 13.82748,-0.2342801 l -0.1849,-3.67449731 -72.82608,-0.27303312 m 0,136.20477173 0.0922,3.59523 124.913032,-0.15677 14.65637,-37.51828 -4.70126,-0.7046 c 0,0 -3.87235,11.95885 -9.12621,17.1183 -5.25386,5.15944 -10.7861,11.02173 -26.826052,12.42917 -16.03995,1.40744 -43.14438,0 -46.18575,0 -3.04138,0 -8.01894,-2.40445 -7.19004,-10.20087 0.8289,-7.79818 0,-49.479413 0,-49.479413 l -22.95369,-4.690181 c 0,0 0.73749,51.081674 0.92031,58.117124 0.18489,7.03545 -10.50855,13.60057 -23.59895,11.49029"
             style="fill:#ffffff;fill-opacity:1;fill-rule:nonzero;stroke:none;stroke-width:0.0191296"
             id="path1-6" /><path
             d="m 47.671627,119.0173 v 3.98628 c 0,0 14.93268,1.09566 25.99507,-0.0775 11.0624,-1.17317 42.406883,-5.70552 42.037103,-29.468204 -0.36771,-23.763217 -34.292383,-29.391223 -34.292383,-29.391223 0,0 27.102343,-7.034918 22.953683,-28.608058 C 100.21645,13.883694 54.585367,16.580557 45.459147,16.698578 l 0.13712,3.165422 c 0,0 9.2654,-0.664087 16.64033,-0.03875 7.37493,0.625334 21.57011,3.907016 22.3076,19.071804 0.7375,15.164436 -10.50771,22.043109 -19.54252,22.199354 l -3.14733,0.05443 a 60.351647,51.173277 0 0 1 -7.81327,-0.2947 c -2.18755,-0.20363 -4.35017,-0.563505 -6.49409,-0.988028 l -37.21182,-7.370485 -3.0422101,8.755204 c 0,0 42.7739701,9.067165 57.8936101,13.131836 15.11757,4.06467 29.86743,9.692676 26.91746,23.45055 -2.94997,13.757345 -11.0624,19.071805 -18.80504,20.165695 -7.74471,1.09566 -25.62736,1.01639 -25.62736,1.01639"
             style="fill:#ffffff;fill-opacity:1;fill-rule:nonzero;stroke:none;stroke-width:0.0191296"
             id="path2-7" /></svg></svg></g></g></svg>
