<svg width="24" height="24" viewBox="0 0 24 24" fill="none" xmlns="http://www.w3.org/2000/svg">
<g clip-path="url(#clip0_154_1148)">
<path d="M0 12.3002C0 12.1046 0 11.9091 0 11.7136C0.156209 11.0031 0.568602 10.4816 1.08722 10.0253C1.29341 9.84935 1.50586 9.6864 1.71205 9.51041C2.64306 8.73474 2.58058 8.8977 2.28066 7.66576C2.15569 7.1443 2.01822 6.62937 1.94949 6.09487C1.82452 5.11714 2.32439 4.28933 3.19292 3.95039C3.38662 3.87217 3.59906 3.80699 3.80526 3.78743C4.34262 3.73529 4.87998 3.69618 5.41734 3.68966C5.94845 3.68314 6.31086 3.48108 6.44207 2.92051C6.47331 2.79667 6.5233 2.67282 6.56704 2.55549C6.76699 1.95582 6.96069 1.35615 7.33559 0.841209C7.8667 0.104653 8.67274 -0.201703 9.49128 0.137244C10.0474 0.36538 10.5535 0.743436 11.0784 1.05631C11.3283 1.20623 11.572 1.36918 11.8344 1.49303C11.9344 1.53866 12.0844 1.54517 12.1781 1.49303C12.4593 1.34963 12.7217 1.17364 12.9904 1.01068C13.4715 0.723881 13.9276 0.378417 14.4275 0.163316C15.2898 -0.208221 16.1333 0.0785799 16.6832 0.867281C16.8269 1.07586 16.9581 1.304 17.0581 1.53866C17.2767 2.07967 17.4767 2.62719 17.6704 3.17472C17.7829 3.49411 17.9891 3.65055 18.314 3.65707C18.5077 3.65707 18.7014 3.68314 18.8951 3.69618C19.3387 3.72877 19.7823 3.73529 20.226 3.80047C21.1882 3.93735 21.8381 4.52399 22.0193 5.37787C22.1317 5.91888 22.038 6.44686 21.913 6.96831C21.7881 7.48977 21.6569 8.00471 21.5381 8.52616C21.4944 8.69563 21.5319 8.83903 21.6694 8.96288C21.8631 9.12583 22.0505 9.30183 22.238 9.4713C22.6441 9.84284 23.0877 10.1687 23.4439 10.5859C24.2062 11.4593 24.1874 12.5349 23.4501 13.4344C23.3439 13.5647 23.2314 13.6951 23.1065 13.7994C22.7628 14.0992 22.4067 14.373 22.0693 14.6728C21.3882 15.292 21.4507 15.1226 21.6444 16.0547C21.7506 16.5435 21.913 17.0259 22.0068 17.5148C22.2879 18.9683 21.5819 20.0112 20.176 20.2133C19.6699 20.285 19.1513 20.3045 18.6326 20.3111C18.0828 20.3111 17.6891 20.5001 17.5517 21.1063C17.5267 21.2236 17.4829 21.3409 17.433 21.4517C17.2018 21.9928 17.0143 22.5598 16.7269 23.0617C16.3207 23.7592 15.6834 24.0981 14.8961 23.9743C14.565 23.9221 14.2275 23.7918 13.9339 23.6223C13.4902 23.3681 13.0653 23.0683 12.6592 22.7619C12.2093 22.423 11.7907 22.4099 11.3408 22.7619C10.9721 23.0487 10.5847 23.3159 10.1911 23.5571C8.77272 24.4175 7.59802 24.0199 6.93569 22.4555C6.717 21.9406 6.5358 21.4126 6.35459 20.8847C6.23588 20.5392 6.02968 20.3502 5.66727 20.3502C5.47982 20.3502 5.29237 20.3241 5.10492 20.3111C4.66129 20.2785 4.21765 20.2719 3.77402 20.2068C2.81802 20.0764 2.16194 19.4898 1.98073 18.6424C1.86826 18.1014 1.95574 17.5734 2.08696 17.052C2.21192 16.5305 2.34314 16.0156 2.46811 15.4941C2.51185 15.3246 2.4806 15.1747 2.33689 15.0574C2.1307 14.8814 1.94324 14.6859 1.7308 14.5229C0.987243 13.9167 0.23119 13.3366 0 12.3002ZM10.7472 13.1476C10.1536 12.5218 9.57876 11.9221 9.00391 11.329C8.54777 10.8597 7.93543 10.8336 7.52304 11.2703C7.1169 11.694 7.14189 12.3328 7.57928 12.7956C8.37907 13.6299 9.17886 14.4708 9.97865 15.2986C10.4473 15.7809 11.0284 15.7874 11.4908 15.3051C13.1341 13.5973 14.7712 11.883 16.4082 10.1753C16.8394 9.72551 16.8519 9.08673 16.4582 8.66956C16.0521 8.23284 15.4397 8.24588 14.9961 8.70867C14.0276 9.71247 13.0653 10.7228 12.0968 11.7331C11.6595 12.1894 11.2158 12.6587 10.7472 13.1476Z" fill="url(#paint0_linear_154_1148)"/>
<path d="M10.7472 13.1472C11.2158 12.6583 11.6595 12.189 12.1031 11.7197C13.0716 10.7094 14.0338 9.69909 15.0023 8.69529C15.446 8.23901 16.0521 8.22598 16.4645 8.65618C16.8581 9.07986 16.8456 9.71213 16.4145 10.1619C14.7774 11.8762 13.1341 13.5839 11.497 15.2917C11.0346 15.774 10.4535 15.774 9.9849 15.2852C9.17886 14.4509 8.37907 13.6165 7.58553 12.7822C7.14189 12.3194 7.12315 11.6806 7.52929 11.2569C7.94168 10.8202 8.55402 10.8463 9.01015 11.3156C9.58501 11.9218 10.1536 12.5215 10.7472 13.1472Z" fill="white"/>
</g>
<defs>
<linearGradient id="paint0_linear_154_1148" x1="0.701004" y1="22.9432" x2="14.886" y2="-3.49075" gradientUnits="userSpaceOnUse">
<stop stop-color="#C29AFF"/>
<stop offset="1" stop-color="#4062FF"/>
</linearGradient>
<clipPath id="clip0_154_1148">
<rect width="24" height="24" fill="white"/>
</clipPath>
</defs>
</svg>
